<svg xmlns="http://www.w3.org/2000/svg" width="66.062" height="60.18"><path data-name="Forma 1" d="M-.009 14.16v46.02h66.08V14.16H-.009zm63.72 43.66h-4.72a1.18 1.18 0 10-2.36 0h-4.72a1.18 1.18 0 10-2.36 0h-4.72a1.18 1.18 0 10-2.36 0h-4.72a1.18 1.18 0 10-2.36 0h-4.72a1.18 1.18 0 10-2.36 0h-4.72a1.18 1.18 0 10-2.36 0h-4.72a1.18 1.18 0 10-2.36 0h-4.72a1.18 1.18 0 10-2.36 0h-4.72v-41.3h61.36v41.3zM3.531 11.8h59a1.18 1.18 0 000-2.36h-59a1.18 1.18 0 100 2.36zm3.54-4.72h51.92a1.18 1.18 0 000-2.36H7.071a1.18 1.18 0 100 2.36zm3.54-4.72h44.84a1.18 1.18 0 000-2.36h-44.84a1.18 1.18 0 100 2.36zm43.66 15.34a1.18 1.18 0 11-1.18 1.18 1.181 1.181 0 011.18-1.18zm0 7.08a1.18 1.18 0 11-1.18 1.18 1.181 1.181 0 011.18-1.18zm3.54-3.54a1.18 1.18 0 11-1.18 1.18 1.181 1.181 0 011.18-1.18zm0 7.08a1.18 1.18 0 11-1.18 1.18 1.181 1.181 0 011.18-1.18zm3.54-10.62a1.18 1.18 0 11-1.18 1.18 1.181 1.181 0 011.18-1.18zm0 7.08a1.18 1.18 0 11-1.18 1.18 1.181 1.181 0 011.18-1.18zm-7.08 7.08a1.18 1.18 0 11-1.18 1.18 1.181 1.181 0 011.18-1.18zm0 7.08a1.18 1.18 0 11-1.18 1.18 1.181 1.181 0 011.18-1.18zm3.54-3.54a1.18 1.18 0 11-1.18 1.18 1.181 1.181 0 011.18-1.18zm0 7.08a1.18 1.18 0 11-1.18 1.18 1.181 1.181 0 011.18-1.18zm3.54-10.62a1.18 1.18 0 11-1.18 1.18 1.181 1.181 0 011.18-1.18zm0 7.08a1.18 1.18 0 11-1.18 1.18 1.181 1.181 0 011.18-1.18zm-7.08 7.08a1.18 1.18 0 11-1.18 1.18 1.181 1.181 0 011.18-1.18zm0 7.08a1.18 1.18 0 11-1.18 1.18 1.181 1.181 0 011.18-1.18zm3.54-3.54a1.18 1.18 0 11-1.18 1.18 1.181 1.181 0 011.18-1.18zm3.54-3.54a1.18 1.18 0 11-1.18 1.18 1.181 1.181 0 011.18-1.18zm0 7.08a1.18 1.18 0 11-1.18 1.18 1.181 1.181 0 011.18-1.18zm-28.32-35.4a1.18 1.18 0 11-1.18 1.18 1.181 1.181 0 011.18-1.18zm0 7.08a1.18 1.18 0 11-1.18 1.18 1.181 1.181 0 011.18-1.18zm3.54-3.54a1.18 1.18 0 11-1.18 1.18 1.181 1.181 0 011.18-1.18zm0 7.08a1.18 1.18 0 11-1.18 1.18 1.181 1.181 0 011.18-1.18zm3.54-10.62a1.18 1.18 0 11-1.18 1.18 1.181 1.181 0 011.18-1.18zm7.08 0a1.18 1.18 0 11-1.18 1.18 1.181 1.181 0 011.18-1.18zm-7.08 7.08a1.18 1.18 0 11-1.18 1.18 1.181 1.181 0 011.18-1.18zm7.08 0a1.18 1.18 0 11-1.18 1.18 1.181 1.181 0 011.18-1.18zm-3.54-3.54a1.18 1.18 0 11-1.18 1.18 1.181 1.181 0 011.18-1.18zm7.08 0a1.18 1.18 0 11-1.18 1.18 1.181 1.181 0 011.18-1.18zm-7.08 7.08a1.18 1.18 0 11-1.18 1.18 1.181 1.181 0 011.18-1.18zm7.08 0a1.18 1.18 0 11-1.18 1.18 1.181 1.181 0 011.18-1.18zm-17.7 3.54a1.18 1.18 0 11-1.18 1.18 1.181 1.181 0 011.18-1.18zm0 7.08a1.18 1.18 0 11-1.18 1.18 1.181 1.181 0 011.18-1.18zm3.54-3.54a1.18 1.18 0 11-1.18 1.18 1.181 1.181 0 011.18-1.18zm0 7.08a1.18 1.18 0 11-1.18 1.18 1.181 1.181 0 011.18-1.18zm3.54-10.62a1.18 1.18 0 11-1.18 1.18 1.181 1.181 0 011.18-1.18zm7.08 0a1.18 1.18 0 11-1.18 1.18 1.181 1.181 0 011.18-1.18zm-7.08 7.08a1.18 1.18 0 11-1.18 1.18 1.181 1.181 0 011.18-1.18zm7.08 0a1.18 1.18 0 11-1.18 1.18 1.181 1.181 0 011.18-1.18zm-3.54-3.54a1.18 1.18 0 11-1.18 1.18 1.181 1.181 0 011.18-1.18zm7.08 0a1.18 1.18 0 11-1.18 1.18 1.181 1.181 0 011.18-1.18zm-7.08 7.08a1.18 1.18 0 11-1.18 1.18 1.181 1.181 0 011.18-1.18zm7.08 0a1.18 1.18 0 11-1.18 1.18 1.181 1.181 0 011.18-1.18zm-17.7 3.54a1.18 1.18 0 11-1.18 1.18 1.181 1.181 0 011.18-1.18zm0 7.08a1.18 1.18 0 11-1.18 1.18 1.181 1.181 0 011.18-1.18zm3.54-3.54a1.18 1.18 0 11-1.18 1.18 1.181 1.181 0 011.18-1.18zm3.54-3.54a1.18 1.18 0 11-1.18 1.18 1.181 1.181 0 011.18-1.18zm7.08 0a1.18 1.18 0 11-1.18 1.18 1.181 1.181 0 011.18-1.18zm-7.08 7.08a1.18 1.18 0 11-1.18 1.18 1.181 1.181 0 011.18-1.18zm7.08 0a1.18 1.18 0 11-1.18 1.18 1.181 1.181 0 011.18-1.18zm-3.54-3.54a1.18 1.18 0 11-1.18 1.18 1.181 1.181 0 011.18-1.18zm7.08 0a1.18 1.18 0 11-1.18 1.18 1.181 1.181 0 011.18-1.18zM25.951 17.7a1.18 1.18 0 11-1.18 1.18 1.181 1.181 0 011.18-1.18zm0 7.08a1.18 1.18 0 11-1.18 1.18 1.181 1.181 0 011.18-1.18zm3.54-3.54a1.18 1.18 0 11-1.18 1.18 1.181 1.181 0 011.18-1.18zm0 7.08a1.18 1.18 0 11-1.18 1.18 1.181 1.181 0 011.18-1.18zm-3.54 3.54a1.18 1.18 0 11-1.18 1.18 1.181 1.181 0 011.18-1.18zm0 7.08a1.18 1.18 0 11-1.18 1.18 1.181 1.181 0 011.18-1.18zm3.54-3.54a1.18 1.18 0 11-1.18 1.18 1.181 1.181 0 011.18-1.18zm0 7.08a1.18 1.18 0 11-1.18 1.18 1.181 1.181 0 011.18-1.18zm-3.54 3.54a1.18 1.18 0 11-1.18 1.18 1.181 1.181 0 011.18-1.18zm0 7.08a1.18 1.18 0 11-1.18 1.18 1.181 1.181 0 011.18-1.18zm3.54-3.54a1.18 1.18 0 11-1.18 1.18 1.181 1.181 0 011.18-1.18zM4.711 17.7a1.18 1.18 0 11-1.18 1.18 1.181 1.181 0 011.18-1.18zm0 7.08a1.18 1.18 0 11-1.18 1.18 1.181 1.181 0 011.18-1.18zm3.54-3.54a1.18 1.18 0 11-1.18 1.18 1.181 1.181 0 011.18-1.18zm0 7.08a1.18 1.18 0 11-1.18 1.18 1.181 1.181 0 011.18-1.18zm3.54-10.62a1.18 1.18 0 11-1.18 1.18 1.181 1.181 0 011.18-1.18zm7.08 0a1.18 1.18 0 11-1.18 1.18 1.181 1.181 0 011.18-1.18zm-7.08 7.08a1.18 1.18 0 11-1.18 1.18 1.181 1.181 0 011.18-1.18zm7.08 0a1.18 1.18 0 11-1.18 1.18 1.181 1.181 0 011.18-1.18zm-3.54-3.54a1.18 1.18 0 11-1.18 1.18 1.181 1.181 0 011.18-1.18zm7.08 0a1.18 1.18 0 11-1.18 1.18 1.181 1.181 0 011.18-1.18zm-7.08 7.08a1.18 1.18 0 11-1.18 1.18 1.181 1.181 0 011.18-1.18zm7.08 0a1.18 1.18 0 11-1.18 1.18 1.181 1.181 0 011.18-1.18zm-17.7 3.54a1.18 1.18 0 11-1.18 1.18 1.181 1.181 0 011.18-1.18zm0 7.08a1.18 1.18 0 11-1.18 1.18 1.181 1.181 0 011.18-1.18zm3.54-3.54a1.18 1.18 0 11-1.18 1.18 1.181 1.181 0 011.18-1.18zm0 7.08a1.18 1.18 0 11-1.18 1.18 1.181 1.181 0 011.18-1.18zm3.54-10.62a1.18 1.18 0 11-1.18 1.18 1.181 1.181 0 011.18-1.18zm7.08 0a1.18 1.18 0 11-1.18 1.18 1.181 1.181 0 011.18-1.18zm-7.08 7.08a1.18 1.18 0 11-1.18 1.18 1.181 1.181 0 011.18-1.18zm7.08 0a1.18 1.18 0 11-1.18 1.18 1.181 1.181 0 011.18-1.18zm-3.54-3.54a1.18 1.18 0 11-1.18 1.18 1.181 1.181 0 011.18-1.18zm7.08 0a1.18 1.18 0 11-1.18 1.18 1.181 1.181 0 011.18-1.18zm-7.08 7.08a1.18 1.18 0 11-1.18 1.18 1.181 1.181 0 011.18-1.18zm7.08 0a1.18 1.18 0 11-1.18 1.18 1.181 1.181 0 011.18-1.18zm-17.7 3.54a1.18 1.18 0 11-1.18 1.18 1.181 1.181 0 011.18-1.18zm0 7.08a1.18 1.18 0 11-1.18 1.18 1.181 1.181 0 011.18-1.18zm3.54-3.54a1.18 1.18 0 11-1.18 1.18 1.181 1.181 0 011.18-1.18zm3.54-3.54a1.18 1.18 0 11-1.18 1.18 1.181 1.181 0 011.18-1.18zm7.08 0a1.18 1.18 0 11-1.18 1.18 1.181 1.181 0 011.18-1.18zm-7.08 7.08a1.18 1.18 0 11-1.18 1.18 1.181 1.181 0 011.18-1.18zm7.08 0a1.18 1.18 0 11-1.18 1.18 1.181 1.181 0 011.18-1.18zm-3.54-3.54a1.18 1.18 0 11-1.18 1.18 1.181 1.181 0 011.18-1.18zm7.08 0a1.18 1.18 0 11-1.18 1.18 1.181 1.181 0 011.18-1.18z" fill="#00c389" fill-rule="evenodd"/></svg>