<svg xmlns="http://www.w3.org/2000/svg" width="44.906" height="60"><path data-name="Forma 1" d="M5.506 0A5.507 5.507 0 00.044 6H.019v48.96A5.04 5.04 0 005.049 60h39.857V0h-39.4zM2.014 54.96V10a4.947 4.947 0 002.993 1v47a3.048 3.048 0 01-3.001-3.04zm40.9 3.04H6.998V11H9.99v25.2a1.478 1.478 0 001.1 1.44 1.443 1.443 0 00.407.06.071.071 0 00.044-.01c.045 0 .088-.01.133-.01a1.519 1.519 0 00.3-.07.661.661 0 00.137-.05 2.218 2.218 0 00.263-.16c.036-.03.073-.05.106-.08a1.428 1.428 0 00.291-.35l4.207-7.03 4.207 7.03a1.465 1.465 0 001.546.69.62.62 0 00.134-.02 1.478 1.478 0 001.1-1.44V11h18.956v47zM22.106 9.48v.01l-.137.27v.05l-.1.23.1.15v24.2l-4.988-8.33-4.988 8.33V10.24L13.607 7h9.741zM24.578 9l2-4h-14.2l-2 4H5.719a3.646 3.646 0 01-3.685-3.14A3.51 3.51 0 015.506 2h37.412v1H37.93a1 1 0 000 2h4.988v1h-3.991a1 1 0 000 2h3.991v1H24.574z" fill="#00c389" fill-rule="evenodd"/></svg>