<svg xmlns="http://www.w3.org/2000/svg" width="66" height="60.5"><path data-name="Forma 1" d="M61.07 48.45L50.32 43.8a2.256 2.256 0 01-.78-.85l7.18-.01a12.529 12.529 0 005.46-.73 3.2 3.2 0 001.83-2.1 3.24 3.24 0 00-.46-2.77c-2.06-2.92-6.84-10.55-6.99-18.29-.01-.13-.44-13.29-13.43-13.4a15.552 15.552 0 00-5.3.94 9.178 9.178 0 00-1.63-2.71C33.94 1.31 30.27 0 25.3 0s-8.64 1.31-10.9 3.88a9.9 9.9 0 00-2.3 7.18v5.85A4.409 4.409 0 0011 19.8v4.4a4.367 4.367 0 001.65 3.42 22.947 22.947 0 003.85 7.96v3.64a2.912 2.912 0 01-1.51 2.55l-9.82 5.35A9.934 9.934 0 000 55.84v4.66h66v-4.07a8.887 8.887 0 00-4.93-7.98zM48.4 58.3H2.2v-2.46a7.712 7.712 0 014.02-6.78l9.82-5.36a5.1 5.1 0 002.66-4.48V34.8l-.26-.31a20.857 20.857 0 01-3.75-7.77l-.1-.43-.37-.25a2.185 2.185 0 01-1.02-1.84v-4.4a2.147 2.147 0 01.74-1.62l.36-.33V11l-.01-.14a7.651 7.651 0 011.77-5.53c1.82-2.08 4.93-3.13 9.24-3.13s7.4 1.05 9.22 3.11a7.2 7.2 0 011.6 3.15 1.554 1.554 0 00.05.23c.01.08.03.16.04.23.01.09.03.17.04.25a1.1 1.1 0 01.02.18c.02.13.03.26.04.39v.03c.01.11.02.23.02.33v.34a3.976 3.976 0 01-.02.42l-.01 6.99.36.33a2.147 2.147 0 01.74 1.62v4.4a2.193 2.193 0 01-1.56 2.09l-.55.17-.18.54a22.824 22.824 0 01-3.12 6.29 12.246 12.246 0 01-.92 1.18l-.27.31v4.54a5.554 5.554 0 00.07.82 1.046 1.046 0 00.04.17 4.774 4.774 0 00.17.65.88.88 0 00.05.15 3.929 3.929 0 00.3.66c.01.03.03.05.04.08a5.32 5.32 0 00.55.79l.26.31h.04a5.084 5.084 0 001.3.94l10.51 5.26a7.673 7.673 0 014.27 6.9v2.25zm15.4 0H50.6v-2.25a9.863 9.863 0 00-5.48-8.87l-7.55-3.78a1.849 1.849 0 00.05-1.37 1.87 1.87 0 00-1.79-1.28h-2.44c-.05-.09-.09-.19-.13-.28a2.619 2.619 0 01-.15-.39 2.738 2.738 0 01-.11-.76V35.6c.25-.3.52-.66.79-1.04a25.243 25.243 0 003.25-6.38 4.371 4.371 0 002.56-3.98v-4.4a4.409 4.409 0 00-1.1-2.89v-5.85a9.671 9.671 0 00-.09-2.35 12.958 12.958 0 014.72-.86c10.82.09 11.22 10.79 11.23 11.24.16 8.34 5.22 16.42 7.39 19.51a1.078 1.078 0 01.15.91 1.013 1.013 0 01-.59.67 10.859 10.859 0 01-4.48.57h-7.57a2.021 2.021 0 00-1.73.96 1.988 1.988 0 00-.09 1.96 4.543 4.543 0 001.95 2.12l10.72 4.65a6.668 6.668 0 013.69 5.99v1.87z" fill="#00c389" fill-rule="evenodd"/></svg>